<?xml version="1.0" encoding="UTF-8" standalone="no"?>
<!DOCTYPE svg PUBLIC "-//W3C//DTD SVG 1.1//EN"
 "http://www.w3.org/Graphics/SVG/1.1/DTD/svg11.dtd">
<!-- Generated by graphviz version 2.43.0 (0)
 -->
<!-- Title: Root Pages: 1 -->
<svg width="667pt" height="558pt"
 viewBox="0.00 0.00 667.00 557.60" xmlns="http://www.w3.org/2000/svg" xmlns:xlink="http://www.w3.org/1999/xlink">
<g id="graph0" class="graph" transform="scale(1 1) rotate(0) translate(4 553.6)">
<title>Root</title>
<polygon fill="white" stroke="transparent" points="-4,4 -4,-553.6 663,-553.6 663,4 -4,4"/>
<g id="clust1" class="cluster">
<title>cluster0</title>
<path fill="lightgrey" stroke="darkgray" d="M20,-8C20,-8 639,-8 639,-8 645,-8 651,-14 651,-20 651,-20 651,-529.6 651,-529.6 651,-535.6 645,-541.6 639,-541.6 639,-541.6 20,-541.6 20,-541.6 14,-541.6 8,-535.6 8,-529.6 8,-529.6 8,-20 8,-20 8,-14 14,-8 20,-8"/>
<text text-anchor="middle" x="329.5" y="-526.4" font-family="Arial" font-size="14.00">EVAChargeEVSEBoard</text>
</g>
<g id="clust2" class="cluster">
<title>cluster1</title>
<path fill="lightgrey" stroke="darkgray" d="M28,-16C28,-16 280,-16 280,-16 286,-16 292,-22 292,-28 292,-28 292,-314.8 292,-314.8 292,-320.8 286,-326.8 280,-326.8 280,-326.8 28,-326.8 28,-326.8 22,-326.8 16,-320.8 16,-314.8 16,-314.8 16,-28 16,-28 16,-22 22,-16 28,-16"/>
<text text-anchor="middle" x="154" y="-311.6" font-family="Arial" font-size="14.00">DeviceBroadcast</text>
</g>
<g id="clust3" class="cluster">
<title>cluster2</title>
<path fill="lightgrey" stroke="darkgray" d="M312,-103C312,-103 631,-103 631,-103 637,-103 643,-109 643,-115 643,-115 643,-314.8 643,-314.8 643,-320.8 637,-326.8 631,-326.8 631,-326.8 312,-326.8 312,-326.8 306,-326.8 300,-320.8 300,-314.8 300,-314.8 300,-115 300,-115 300,-109 306,-103 312,-103"/>
<text text-anchor="middle" x="471.5" y="-311.6" font-family="Arial" font-size="14.00">CANInterfaceMapper</text>
</g>
<!-- node0 -->
<g id="node0" class="node">
<title>node0</title>
<ellipse fill="black" stroke="black" cx="307" cy="-505.2" rx="5.4" ry="5.4"/>
<text text-anchor="start" x="278.6" y="-514.2" font-family="Times,serif" font-style="italic" font-size="8.00">Initial</text>
</g>
<!-- node1 -->
<g id="node1" class="node">
<title>node1</title>
<path fill="#e0e0e0" stroke="#000000" d="M332,-462.8C332,-462.8 282,-462.8 282,-462.8 276,-462.8 270,-456.8 270,-450.8 270,-450.8 270,-438.8 270,-438.8 270,-432.8 276,-426.8 282,-426.8 282,-426.8 332,-426.8 332,-426.8 338,-426.8 344,-432.8 344,-438.8 344,-438.8 344,-450.8 344,-450.8 344,-456.8 338,-462.8 332,-462.8"/>
<text text-anchor="middle" x="307" y="-441.1" font-family="Arial" font-size="14.00">PowerOn</text>
</g>
<!-- node0&#45;&gt;node1 -->
<g id="edge1" class="edge">
<title>node0&#45;&gt;node1</title>
<path fill="none" stroke="black" d="M307,-499.62C307,-493.83 307,-483.4 307,-473.25"/>
<polygon fill="black" stroke="black" points="310.5,-472.98 307,-462.98 303.5,-472.98 310.5,-472.98"/>
</g>
<!-- node2 -->
<g id="node2" class="node">
<title>node2</title>
<path fill="#e0e0e0" stroke="#000000" d="M323,-389.8C323,-389.8 291,-389.8 291,-389.8 285,-389.8 279,-383.8 279,-377.8 279,-377.8 279,-365.8 279,-365.8 279,-359.8 285,-353.8 291,-353.8 291,-353.8 323,-353.8 323,-353.8 329,-353.8 335,-359.8 335,-365.8 335,-365.8 335,-377.8 335,-377.8 335,-383.8 329,-389.8 323,-389.8"/>
<text text-anchor="middle" x="307" y="-368.1" font-family="Arial" font-size="14.00">Ready</text>
</g>
<!-- node1&#45;&gt;node2 -->
<g id="edge2" class="edge">
<title>node1&#45;&gt;node2</title>
<path fill="none" stroke="black" d="M307,-426.61C307,-418.59 307,-408.85 307,-399.87"/>
<polygon fill="black" stroke="black" points="310.5,-399.83 307,-389.83 303.5,-399.83 310.5,-399.83"/>
</g>
<!-- node3 -->
<g id="node3" class="node">
<title>node3</title>
<ellipse fill="black" stroke="black" cx="220" cy="-290.4" rx="5.4" ry="5.4"/>
<text text-anchor="start" x="191.6" y="-299.4" font-family="Times,serif" font-style="italic" font-size="8.00">Initial</text>
</g>
<!-- node2&#45;&gt;node3 -->
<g id="edge3" class="edge">
<title>node2&#45;&gt;node3</title>
<path fill="none" stroke="black" d="M288.12,-353.57C281.66,-347.67 274.12,-340.79 266.46,-333.8"/>
<polygon fill="black" stroke="black" points="268.53,-330.95 258.79,-326.8 263.81,-336.12 268.53,-330.95"/>
</g>
<!-- node7 -->
<g id="node7" class="node">
<title>node7</title>
<ellipse fill="black" stroke="black" cx="395" cy="-290.4" rx="5.4" ry="5.4"/>
<text text-anchor="start" x="366.6" y="-299.4" font-family="Times,serif" font-style="italic" font-size="8.00">Initial</text>
</g>
<!-- node2&#45;&gt;node7 -->
<g id="edge4" class="edge">
<title>node2&#45;&gt;node7</title>
<path fill="none" stroke="black" d="M326.09,-353.57C332.63,-347.67 340.26,-340.79 348.01,-333.8"/>
<polygon fill="black" stroke="black" points="350.69,-336.09 355.77,-326.8 346,-330.9 350.69,-336.09"/>
</g>
<!-- node4 -->
<g id="node4" class="node">
<title>node4</title>
<path fill="#e0e0e0" stroke="#000000" d="M235.5,-234C235.5,-234 88.5,-234 88.5,-234 82.5,-234 76.5,-228 76.5,-222 76.5,-222 76.5,-210 76.5,-210 76.5,-204 82.5,-198 88.5,-198 88.5,-198 235.5,-198 235.5,-198 241.5,-198 247.5,-204 247.5,-210 247.5,-210 247.5,-222 247.5,-222 247.5,-228 241.5,-234 235.5,-234"/>
<text text-anchor="middle" x="162" y="-212.3" font-family="Arial" font-size="14.00">GenerateUniqueDeviceID</text>
</g>
<!-- node3&#45;&gt;node4 -->
<g id="edge5" class="edge">
<title>node3&#45;&gt;node4</title>
<path fill="none" stroke="black" d="M214.81,-288.39C205.21,-286.25 184.68,-280.3 174,-267 168.87,-260.61 165.88,-252.38 164.15,-244.44"/>
<polygon fill="black" stroke="black" points="167.57,-243.68 162.53,-234.36 160.66,-244.79 167.57,-243.68"/>
<text text-anchor="start" x="174" y="-256.8" font-family="Courier,monospace" font-size="14.00"> </text>
<text text-anchor="start" x="183" y="-256.8" font-family="Courier,monospace" font-style="italic" font-size="10.00">/doStartTimer();</text>
<text text-anchor="start" x="280" y="-256.8" font-family="Courier,monospace" font-size="10.00"> </text>
<text text-anchor="start" x="287" y="-256.8" font-family="Courier,monospace" font-size="14.00"> </text>
</g>
<!-- node5 -->
<g id="node5" class="node">
<title>node5</title>
<path fill="#e0e0e0" stroke="#000000" d="M199.5,-147C199.5,-147 124.5,-147 124.5,-147 118.5,-147 112.5,-141 112.5,-135 112.5,-135 112.5,-123 112.5,-123 112.5,-117 118.5,-111 124.5,-111 124.5,-111 199.5,-111 199.5,-111 205.5,-111 211.5,-117 211.5,-123 211.5,-123 211.5,-135 211.5,-135 211.5,-141 205.5,-147 199.5,-147"/>
<text text-anchor="middle" x="162" y="-125.3" font-family="Arial" font-size="14.00">WaitForTimer</text>
</g>
<!-- node4&#45;&gt;node5 -->
<g id="edge6" class="edge">
<title>node4&#45;&gt;node5</title>
<path fill="none" stroke="black" d="M162,-197.8C162,-186.16 162,-170.55 162,-157.24"/>
<polygon fill="black" stroke="black" points="165.5,-157.18 162,-147.18 158.5,-157.18 165.5,-157.18"/>
</g>
<!-- node6 -->
<g id="node6" class="node">
<title>node6</title>
<path fill="#e0e0e0" stroke="#000000" d="M208,-60C208,-60 100,-60 100,-60 94,-60 88,-54 88,-48 88,-48 88,-36 88,-36 88,-30 94,-24 100,-24 100,-24 208,-24 208,-24 214,-24 220,-30 220,-36 220,-36 220,-48 220,-48 220,-54 214,-60 208,-60"/>
<text text-anchor="middle" x="154" y="-38.3" font-family="Arial" font-size="14.00">BroadcastDeviceID</text>
</g>
<!-- node5&#45;&gt;node6 -->
<g id="edge7" class="edge">
<title>node5&#45;&gt;node6</title>
<path fill="none" stroke="black" d="M112.47,-126.73C87.42,-123.26 59,-114.38 43,-93 28.28,-73.32 49.83,-61.2 77.75,-53.84"/>
<polygon fill="black" stroke="black" points="78.93,-57.15 87.84,-51.43 77.3,-50.35 78.93,-57.15"/>
<text text-anchor="start" x="43" y="-82.8" font-family="Courier,monospace" font-size="14.00"> </text>
<text text-anchor="start" x="52" y="-82.8" font-family="Courier,monospace" font-weight="bold" font-size="10.00">evTimer_BroadcastingDeviceID_Elapsed</text>
<text text-anchor="start" x="269" y="-82.8" font-family="Courier,monospace" font-size="14.00"> </text>
</g>
<!-- node6&#45;&gt;node5 -->
<g id="edge8" class="edge">
<title>node6&#45;&gt;node5</title>
<path fill="none" stroke="black" d="M220.05,-54.21C245.54,-59.99 270.41,-67.97 278,-78 296.77,-102.8 259.14,-115.47 221.84,-121.83"/>
<polygon fill="black" stroke="black" points="221.23,-118.39 211.89,-123.39 222.31,-125.3 221.23,-118.39"/>
</g>
<!-- node8 -->
<g id="node8" class="node">
<title>node8</title>
<path fill="#e0e0e0" stroke="#000000" d="M533.5,-234C533.5,-234 420.5,-234 420.5,-234 414.5,-234 408.5,-228 408.5,-222 408.5,-222 408.5,-210 408.5,-210 408.5,-204 414.5,-198 420.5,-198 420.5,-198 533.5,-198 533.5,-198 539.5,-198 545.5,-204 545.5,-210 545.5,-210 545.5,-222 545.5,-222 545.5,-228 539.5,-234 533.5,-234"/>
<text text-anchor="middle" x="477" y="-212.3" font-family="Arial" font-size="14.00">WaitForSetMapping</text>
</g>
<!-- node7&#45;&gt;node8 -->
<g id="edge9" class="edge">
<title>node7&#45;&gt;node8</title>
<path fill="none" stroke="black" d="M398.52,-286.29C407.31,-278.53 430.84,-257.76 449.86,-240.97"/>
<polygon fill="black" stroke="black" points="452.23,-243.54 457.41,-234.3 447.6,-238.29 452.23,-243.54"/>
</g>
<!-- node9 -->
<g id="node9" class="node">
<title>node9</title>
<path fill="#e0e0e0" stroke="#000000" d="M426.5,-147C426.5,-147 355.5,-147 355.5,-147 349.5,-147 343.5,-141 343.5,-135 343.5,-135 343.5,-123 343.5,-123 343.5,-117 349.5,-111 355.5,-111 355.5,-111 426.5,-111 426.5,-111 432.5,-111 438.5,-117 438.5,-123 438.5,-123 438.5,-135 438.5,-135 438.5,-141 432.5,-147 426.5,-147"/>
<text text-anchor="middle" x="391" y="-125.3" font-family="Arial" font-size="14.00">SetNewBase</text>
</g>
<!-- node8&#45;&gt;node9 -->
<g id="edge10" class="edge">
<title>node8&#45;&gt;node9</title>
<path fill="none" stroke="black" d="M408.34,-207.3C373.97,-201.88 337.47,-193.2 327,-180 318.74,-169.59 325.24,-160.07 336.74,-152.19"/>
<polygon fill="black" stroke="black" points="338.61,-155.15 345.39,-147.01 335.01,-149.15 338.61,-155.15"/>
<text text-anchor="start" x="327" y="-169.8" font-family="Courier,monospace" font-size="14.00"> </text>
<text text-anchor="start" x="336" y="-169.8" font-family="Courier,monospace" font-weight="bold" font-size="10.00">evSetMappingForDevice</text>
<text text-anchor="start" x="463" y="-169.8" font-family="Courier,monospace" font-size="14.00"> </text>
</g>
<!-- node10 -->
<g id="node10" class="node">
<title>node10</title>
<path fill="#e0e0e0" stroke="#000000" d="M592,-147C592,-147 472,-147 472,-147 466,-147 460,-141 460,-135 460,-135 460,-123 460,-123 460,-117 466,-111 472,-111 472,-111 592,-111 592,-111 598,-111 604,-117 604,-123 604,-123 604,-135 604,-135 604,-141 598,-147 592,-147"/>
<text text-anchor="middle" x="532" y="-125.3" font-family="Arial" font-size="14.00">ResetBaseToOriginal</text>
</g>
<!-- node8&#45;&gt;node10 -->
<g id="edge12" class="edge">
<title>node8&#45;&gt;node10</title>
<path fill="none" stroke="black" d="M484.35,-197.76C488.88,-187.85 495.13,-175.35 502,-165 504.23,-161.65 506.74,-158.26 509.33,-154.98"/>
<polygon fill="black" stroke="black" points="512.15,-157.06 515.85,-147.14 506.77,-152.59 512.15,-157.06"/>
<text text-anchor="start" x="502" y="-169.8" font-family="Courier,monospace" font-size="14.00"> </text>
<text text-anchor="start" x="511" y="-169.8" font-family="Courier,monospace" font-weight="bold" font-size="10.00">evResetAllMappings</text>
<text text-anchor="start" x="620" y="-169.8" font-family="Courier,monospace" font-size="14.00"> </text>
</g>
<!-- node9&#45;&gt;node8 -->
<g id="edge11" class="edge">
<title>node9&#45;&gt;node8</title>
<path fill="none" stroke="black" d="M438.66,-145.91C453.59,-151.86 467.39,-158.69 472,-165 476.73,-171.46 478.71,-179.72 479.3,-187.65"/>
<polygon fill="black" stroke="black" points="475.8,-187.75 479.4,-197.71 482.8,-187.68 475.8,-187.75"/>
</g>
<!-- node10&#45;&gt;node8 -->
<g id="edge13" class="edge">
<title>node10&#45;&gt;node8</title>
<path fill="none" stroke="black" d="M604.25,-144.65C626.33,-152.48 641.8,-163.92 629,-180 619.3,-192.19 587.59,-200.5 555.64,-205.94"/>
<polygon fill="black" stroke="black" points="555.05,-202.49 545.73,-207.54 556.16,-209.4 555.05,-202.49"/>
</g>
</g>
</svg>
